<?xml version="1.0" encoding="UTF-8"?>
<svg id="svg2" xmlns="http://www.w3.org/2000/svg" viewBox="0 0 300 300">
  <defs>
    <style>
      .cls-1 {
        fill: #fff;
        stroke-width: 0px;
      }
    </style>
  </defs>
  <path class="cls-1" d="m200.42,84.04c-16.34-4.95-33.34-7.38-50.42-7.18-17.07-.19-34.08,2.23-50.42,7.18-37.32,12.01-63.02,36.93-63.02,65.66,0,40.45,50.7,73.44,113.44,73.44s113.44-32.85,113.44-73.44c0-28.73-25.63-53.66-63.02-65.66Zm-50.42,2.18c36.05,0,65.42,10.42,65.42,23.31,0,9.51-16.13,17.74-39.15,21.27h-.04c-3.8-25.35-14.08-43.66-26.23-43.66s-22.43,18.17-26.23,43.66c-23.03-3.66-39.15-11.72-39.15-21.27,0-12.89,29.33-23.31,65.38-23.31Zm16.27,45.88c-10.82.97-21.71.98-32.53.04,2.46-16.3,8.8-27.71,16.27-27.71s13.63,11.41,16.27,27.67Zm-113.12,14.96h-.04c0-12.46,4.86-24.05,13.2-34.15-.14.7-.14,1.48-.14,2.04,0,15.7,23.45,28.87,56.12,33.87v3.52c0,29.01,8.1,53.66,19.22,62.14-49.54-2.92-88.37-31.97-88.37-67.42Zm96.86,44.57c-9.37,0-17.01-18.31-17.43-41.51,5.56.6,11.41.74,17.43.74s11.87-.28,17.46-.7c-.46,23.13-8.1,41.48-17.46,41.48Zm8.57,22.99s-.03.03-.05.04v-.04s.03,0,.05,0c11.1-8.55,19.14-33.17,19.14-62.14v-3.52c32.67-4.82,56.12-18.17,56.12-33.83,0-.74,0-1.48-.14-2.08,8.32,9.46,13,21.56,13.2,34.15,0,35.3-38.81,64.34-88.32,67.42Z"/>
</svg>